<svg width="24" height="24" viewBox="0 0 24 24" fill="none" xmlns="http://www.w3.org/2000/svg">
<path d="M8.31726 17.668C9.01146 18.5362 9.71847 19.6279 10.0885 20.2873C10.5391 21.1445 10.7259 21.7233 11.0611 22.76C11.2571 23.3278 11.4439 23.5 11.8359 23.5C12.2645 23.5 12.4605 23.2106 12.6106 22.76C12.9239 21.7874 13.1656 21.0474 13.5485 20.3423C15.0248 17.5581 17.4316 15.58 18.787 12.8691C18.787 12.8691 19.679 11.2133 19.679 8.89444C19.679 6.73309 18.7998 5.23114 18.7998 5.23114L8.32276 17.6864L8.31726 17.668Z" fill="#34A853"/>
<path d="M4.76392 12.5761C5.60831 14.4993 7.21833 16.1844 8.31732 17.668L14.142 10.7627C14.142 10.7627 13.3196 11.8397 11.8341 11.8397C10.1783 11.8397 8.83018 10.5209 8.83018 8.85415C8.83018 7.70753 9.51339 6.9126 9.51339 6.9126C5.22733 7.55001 5.46544 8.58856 4.7511 12.5724L4.76392 12.5761Z" fill="#FBBC04"/>
<path d="M14.2153 1.36084C16.1568 1.98543 17.8053 3.30239 18.7944 5.22562L14.142 10.7755C14.142 10.7755 14.8252 9.97692 14.8252 8.83397C14.8252 7.13237 13.3892 5.84838 11.8396 5.84838C10.3688 5.84838 9.53174 6.91257 9.53174 6.91257C9.88891 6.09932 13.5797 1.63742 14.2208 1.36267L14.2153 1.36084Z" fill="#4285F4"/>
<path d="M5.82605 3.80243C6.98365 2.42502 9.01312 1 11.8155 1C13.1691 1 14.1967 1.359 14.1967 1.359L9.52598 6.9089C9.21094 6.73801 6.13743 4.34459 5.82605 3.7951V3.80243Z" fill="#1A73E8"/>
<path d="M4.7638 12.576C4.7638 12.576 4 11.0594 4 8.87609C4 6.80633 4.80959 4.993 5.83165 3.82074L9.53158 6.93455L4.76929 12.576H4.7638Z" fill="#EA4335"/>
</svg>
