<svg width="120" height="34" viewBox="0 0 120 34" fill="none" xmlns="http://www.w3.org/2000/svg">
<g clip-path="url(#clip0_1_34)">
<path fill-rule="evenodd" clip-rule="evenodd" d="M108.428 -0.000402451L59.9945 0.0121351L60.0056 33.3298H108.428C114.818 33.3298 120 25.8671 120 16.6647C120 7.4623 114.818 -0.000402451 108.428 -0.000402451Z" fill="#003C7A"/>
<path fill-rule="evenodd" clip-rule="evenodd" d="M65.1588 14.8466H66.5566L66.0565 17.11C66.2763 16.8892 66.5167 16.723 66.7789 16.6126C67.0394 16.5022 67.322 16.4463 67.6266 16.4463C68.198 16.4463 68.6137 16.6785 68.8741 17.1415C69.1345 17.6045 69.1933 18.1592 69.0512 18.8029C68.9083 19.4494 68.5843 19.9941 68.0807 20.4384C67.577 20.8829 67.0474 21.1036 66.4931 21.1036C66.2416 21.1036 66.017 21.052 65.8214 20.9459C65.6238 20.8413 65.453 20.685 65.3122 20.4786L64.8212 22.7005H63.4234L63.9144 20.4786C63.6651 20.685 63.4117 20.8413 63.1559 20.9459C62.9014 21.052 62.6436 21.1036 62.3819 21.1036C61.8071 21.1036 61.3823 20.8814 61.106 20.4356C60.8295 19.9912 60.767 19.4307 60.9158 18.757C61.0637 18.0876 61.3998 17.5343 61.9241 17.0971C62.4481 16.6613 62.9602 16.442 63.4581 16.442C63.7285 16.442 63.963 16.495 64.1634 16.6025C64.3641 16.7087 64.5309 16.8677 64.665 17.0814L65.1588 14.8466ZM63.664 17.3451C63.404 17.3451 63.1456 17.477 62.8929 17.7378C62.6399 18.0001 62.4661 18.3456 62.3717 18.7728C62.2763 19.2043 62.2907 19.5497 62.4144 19.8106C62.5398 20.0715 62.7371 20.2005 63.0075 20.2005C63.2812 20.2005 63.5423 20.0715 63.7916 19.8106C64.0392 19.5497 64.2136 19.1942 64.313 18.7441C64.4213 18.2539 64.3955 17.8984 64.2373 17.6776C64.0794 17.4554 63.8881 17.3451 63.664 17.3451ZM66.9556 17.3537C66.6682 17.3537 66.4028 17.4942 66.1607 17.7766C65.9172 18.0575 65.749 18.4087 65.6555 18.8316C65.5622 19.2544 65.5855 19.5899 65.7223 19.8378C65.8591 20.0859 66.0594 20.2091 66.3246 20.2091C66.5881 20.2091 66.8464 20.0701 67.0984 19.7891C67.3501 19.5096 67.5187 19.1799 67.603 18.7986C67.6926 18.393 67.681 18.0503 67.5696 17.7722C67.4569 17.4927 67.2533 17.3537 66.9556 17.3537ZM71.645 17.9041L70.4098 17.7106C70.6488 17.2791 70.9655 16.9609 71.3622 16.753C71.7602 16.5467 72.3034 16.442 72.9946 16.442C73.6242 16.442 74.0773 16.5051 74.3577 16.6298C74.6365 16.7545 74.8189 16.9122 74.9013 17.1043C74.9838 17.2963 74.9694 17.6476 74.8561 18.1607L74.5363 19.5383C74.4499 19.9296 74.4081 20.2191 74.4131 20.4055C74.4167 20.5904 74.4579 20.7911 74.5343 21.0033H73.1399C73.1214 20.9244 73.1009 20.8083 73.0816 20.655C73.075 20.5847 73.0681 20.5388 73.0628 20.5159C72.7781 20.7123 72.4893 20.8585 72.1936 20.9574C71.8984 21.0549 71.595 21.1036 71.2837 21.1036C70.7362 21.1036 70.3309 20.9789 70.0709 20.7309C69.8094 20.4815 69.7218 20.1661 69.806 19.7848C69.8614 19.534 69.983 19.3089 70.1704 19.1111C70.3579 18.9132 70.593 18.7628 70.8745 18.6581C71.1559 18.5535 71.5509 18.4618 72.0559 18.3829C72.7357 18.2797 73.214 18.1822 73.4869 18.0933L73.5129 17.9758C73.5632 17.7479 73.5319 17.5873 73.4201 17.4899C73.3078 17.3938 73.0671 17.3451 72.6958 17.3451C72.4443 17.3451 72.2401 17.3867 72.0814 17.4698C71.9231 17.5515 71.7782 17.6963 71.645 17.9041ZM73.3172 18.8617C73.1264 18.9118 72.8274 18.972 72.42 19.0423C72.0144 19.1125 71.7443 19.1814 71.6083 19.2473C71.4009 19.3577 71.278 19.4953 71.241 19.663C71.2042 19.8292 71.2464 19.9712 71.367 20.0916C71.4876 20.212 71.6607 20.2722 71.8882 20.2722C72.1432 20.2722 72.3999 20.2019 72.6616 20.0629C72.8562 19.9568 72.9962 19.8264 73.0835 19.6716C73.1433 19.5713 73.2028 19.3791 73.2652 19.0968L73.3172 18.8617ZM76.7515 16.5438H78.0655L77.9207 17.1989C78.1398 16.9738 78.411 16.7918 78.7326 16.6527C79.0544 16.5122 79.3933 16.442 79.7475 16.442C80.3652 16.442 80.8454 16.6455 81.1852 17.0512C81.5267 17.4569 81.6171 18.0231 81.4569 18.7484C81.2925 19.4924 80.9472 20.0715 80.4232 20.4844C79.8974 20.8972 79.3249 21.1036 78.7073 21.1036C78.413 21.1036 78.1568 21.0549 77.9389 20.9574C77.7229 20.8585 77.5084 20.6908 77.2959 20.4528L76.7993 22.7005H75.3911L76.7515 16.5438ZM77.6698 18.6983C77.5593 19.1986 77.5952 19.5698 77.7805 19.8078C77.9637 20.0471 78.2262 20.1675 78.5685 20.1675C78.8952 20.1675 79.1916 20.0571 79.4574 19.8378C79.7231 19.6185 79.9124 19.2573 80.0229 18.757C80.1265 18.2883 80.0903 17.9414 79.9161 17.7149C79.7421 17.4884 79.49 17.3752 79.1597 17.3752C78.8158 17.3752 78.5058 17.4856 78.2288 17.7092C77.9522 17.9314 77.7664 18.261 77.6698 18.6983ZM83.1571 16.5438H84.9022L85.538 19.6515L87.5575 16.5438H89.2975L88.3121 21.0033H87.1145L87.7632 18.0675L85.8159 21.0033H84.6133L84.0232 18.0675L83.3746 21.0033H82.1718L83.1571 16.5438ZM91.5171 17.9041L90.2818 17.7106C90.5209 17.2791 90.8376 16.9609 91.2342 16.753C91.6323 16.5467 92.1755 16.442 92.8667 16.442C93.4963 16.442 93.9494 16.5051 94.2298 16.6298C94.5085 16.7545 94.6909 16.9122 94.7734 17.1043C94.8559 17.2963 94.8415 17.6476 94.7281 18.1607L94.4084 19.5383C94.3219 19.9296 94.2801 20.2191 94.2852 20.4055C94.2888 20.5904 94.33 20.7911 94.4064 21.0033H93.012C92.9935 20.9244 92.9729 20.8083 92.9537 20.655C92.9471 20.5847 92.9401 20.5388 92.9349 20.5159C92.6502 20.7123 92.3613 20.8585 92.0657 20.9574C91.7704 21.0549 91.4671 21.1036 91.1558 21.1036C90.6083 21.1036 90.203 20.9789 89.9429 20.7309C89.6815 20.4815 89.5939 20.1661 89.6781 19.7848C89.7335 19.534 89.8551 19.3089 90.0425 19.1111C90.23 18.9132 90.465 18.7628 90.7465 18.6581C91.028 18.5535 91.423 18.4618 91.928 18.3829C92.6078 18.2797 93.0861 18.1822 93.359 18.0933L93.385 17.9758C93.4353 17.7479 93.404 17.5873 93.2922 17.4899C93.1799 17.3938 92.9391 17.3451 92.5679 17.3451C92.3164 17.3451 92.1122 17.3867 91.9535 17.4698C91.7952 17.5515 91.6503 17.6963 91.5171 17.9041ZM93.1892 18.8617C92.9985 18.9118 92.6995 18.972 92.2921 19.0423C91.8865 19.1125 91.6164 19.1814 91.4804 19.2473C91.273 19.3577 91.1501 19.4953 91.1131 19.663C91.0763 19.8292 91.1185 19.9712 91.239 20.0916C91.3596 20.212 91.5328 20.2722 91.7603 20.2722C92.0152 20.2722 92.272 20.2019 92.5337 20.0629C92.7282 19.9568 92.8682 19.8264 92.9555 19.6716C93.0153 19.5713 93.0749 19.3791 93.1372 19.0968L93.1892 18.8617ZM96.6133 16.5438H98.0231L97.2483 20.05H99.2569L100.032 16.5438H101.441L100.667 20.05H101.223L100.752 22.1787H99.6146L99.8744 21.0033H95.628L96.6133 16.5438ZM103.128 16.5438H104.482L103.863 19.3447L106.648 16.5438H108.03L107.045 21.0033H105.691L106.321 18.1521L103.496 21.0033H102.143L103.128 16.5438ZM114.225 16.5438L113.24 21.0033H111.84L112.25 19.1512H112.12C111.815 19.1512 111.585 19.1842 111.429 19.2501C111.272 19.3161 111.084 19.4551 110.863 19.6673L110.757 19.7562L109.555 21.0033H107.916L109.209 19.7103C109.578 19.3405 109.887 19.1268 110.132 19.071C109.743 19.0523 109.451 18.9262 109.255 18.6954C109.062 18.4646 109.004 18.1693 109.083 17.8109C109.147 17.5228 109.281 17.2763 109.489 17.0727C109.697 16.8677 109.943 16.7287 110.228 16.6541C110.513 16.5811 110.921 16.5438 111.454 16.5438H114.225ZM112.658 17.3035H111.65C111.281 17.3035 111.009 17.3479 110.839 17.4354C110.671 17.5242 110.563 17.6705 110.518 17.874C110.473 18.079 110.524 18.2253 110.675 18.3155C110.827 18.4044 111.096 18.4503 111.482 18.4503H112.404L112.658 17.3035Z" fill="white"/>
<path fill-rule="evenodd" clip-rule="evenodd" d="M113.712 10.2126H112.705C112.335 10.2126 112.064 10.257 111.894 10.3444C111.725 10.4333 111.618 10.5796 111.573 10.7831C111.527 10.9881 111.579 11.1343 111.73 11.2246C111.881 11.3135 112.15 11.3594 112.537 11.3594H113.459L113.712 10.2126ZM115.28 9.45287L114.294 13.9123H112.895L113.304 12.0603H113.174C112.87 12.0603 112.64 12.0933 112.483 12.1592C112.327 12.2251 112.139 12.3642 111.917 12.5763L111.812 12.6652L110.609 13.9123H108.97L110.264 12.6194C110.633 12.2495 110.942 12.0359 111.187 11.98C110.797 11.9614 110.505 11.8352 110.31 11.6045C110.116 11.3737 110.058 11.0784 110.137 10.72C110.201 10.4319 110.336 10.1853 110.544 9.98175C110.751 9.77676 110.998 9.63778 111.283 9.56318C111.568 9.49012 111.976 9.45287 112.508 9.45287H115.28Z" fill="white"/>
<path fill-rule="evenodd" clip-rule="evenodd" d="M106.55 11.7707C106.36 11.8209 106.061 11.8811 105.653 11.9514C105.248 12.0216 104.978 12.0904 104.842 12.1564C104.634 12.2667 104.511 12.4043 104.474 12.572C104.437 12.7383 104.48 12.8802 104.6 13.0007C104.721 13.1211 104.894 13.1812 105.122 13.1812C105.376 13.1812 105.633 13.111 105.895 12.9719C106.089 12.8659 106.229 12.7354 106.317 12.5806C106.377 12.4803 106.436 12.2882 106.498 12.0058L106.55 11.7707ZM104.878 10.8132L103.643 10.6197C103.882 10.1882 104.199 9.86995 104.595 9.66211C104.993 9.45573 105.537 9.35106 106.228 9.35106C106.858 9.35106 107.311 9.41414 107.591 9.53887C107.87 9.66357 108.052 9.82123 108.135 10.0134C108.217 10.2054 108.203 10.5566 108.089 11.0698L107.77 12.4473C107.683 12.8387 107.641 13.1282 107.646 13.3146C107.65 13.4995 107.691 13.7001 107.768 13.9123H106.373C106.355 13.8335 106.334 13.7173 106.315 13.564C106.308 13.4937 106.301 13.4479 106.296 13.425C106.011 13.6213 105.723 13.7675 105.427 13.8665C105.132 13.9639 104.828 14.0126 104.517 14.0126C103.97 14.0126 103.564 13.8879 103.304 13.64C103.043 13.3906 102.955 13.0752 103.039 12.6939C103.095 12.4431 103.216 12.2179 103.404 12.0202C103.591 11.8223 103.826 11.6719 104.108 11.5672C104.389 11.4625 104.784 11.3708 105.289 11.292C105.969 11.1888 106.447 11.0912 106.72 11.0024L106.746 10.8849C106.797 10.6569 106.765 10.4964 106.653 10.3989C106.541 10.3028 106.3 10.2541 105.929 10.2541C105.678 10.2541 105.473 10.2957 105.315 10.3788C105.156 10.4606 105.011 10.6054 104.878 10.8132Z" fill="white"/>
<path fill-rule="evenodd" clip-rule="evenodd" d="M97.7647 9.31621H99.1693L98.7667 11.1381C99.0042 11.1166 99.1835 11.0564 99.3028 10.9575C99.4202 10.86 99.5857 10.645 99.7954 10.3153C100.072 9.87522 100.333 9.59425 100.574 9.471C100.815 9.34775 101.109 9.28609 101.457 9.28609C101.563 9.28609 101.748 9.29329 102.008 9.30761L101.84 10.0888C101.469 10.0888 101.225 10.1175 101.109 10.1763C100.991 10.2379 100.84 10.4214 100.652 10.7267C100.397 11.1381 100.105 11.3918 99.7779 11.4864C100.198 11.5911 100.503 11.9136 100.691 12.4568C100.7 12.4856 100.712 12.5142 100.726 12.5458L101.241 13.7757H99.7272L99.3105 12.487C99.2244 12.2261 99.1366 12.0584 99.0486 11.9838C98.9587 11.9108 98.8113 11.8734 98.6043 11.8734L98.1839 13.7757H96.7794L97.7647 9.31621Z" fill="white"/>
<path fill-rule="evenodd" clip-rule="evenodd" d="M95.0282 10.6472L93.5927 10.8565C93.5979 10.6243 93.5304 10.4494 93.3904 10.3318C93.2504 10.2143 93.0496 10.1555 92.7861 10.1555C92.4337 10.1555 92.1323 10.2573 91.8789 10.4594C91.6252 10.663 91.4458 11.0027 91.3406 11.4786C91.2238 12.0076 91.2472 12.3817 91.4112 12.5996C91.5751 12.8175 91.8351 12.9264 92.1927 12.9264C92.4612 12.9264 92.6925 12.8633 92.8918 12.7357C93.091 12.6082 93.2592 12.3889 93.3978 12.0792L94.7386 12.2756C94.4773 12.8074 94.1112 13.2102 93.6441 13.4811C93.1768 13.7535 92.6012 13.8883 91.9152 13.8883C91.1367 13.8883 90.5609 13.6833 90.1899 13.2719C89.8171 12.8605 89.7122 12.2899 89.8731 11.5618C90.0356 10.8264 90.395 10.2531 90.9493 9.84303C91.5055 9.43166 92.1787 9.22668 92.9709 9.22668C93.6193 9.22668 94.1082 9.3442 94.4398 9.57786C94.7698 9.81149 94.9663 10.1685 95.0282 10.6472Z" fill="white"/>
<path fill-rule="evenodd" clip-rule="evenodd" d="M83.2966 9.45287H84.7063L84.3456 11.0855H86.3593L86.72 9.45287H88.1348L87.1495 13.9123H85.7347L86.1486 12.0387H84.1349L83.721 13.9123H82.3112L83.2966 9.45287Z" fill="white"/>
<path fill-rule="evenodd" clip-rule="evenodd" d="M76.0553 9.465H77.4086L76.7897 12.2659L79.5746 9.465H80.957L79.9716 13.9244H78.6183L79.2484 11.0733L76.4233 13.9244H75.07L76.0553 9.465Z" fill="white"/>
<path fill-rule="evenodd" clip-rule="evenodd" d="M67.1022 9.36995H68.8473L69.4831 12.4777L71.5026 9.36995H73.2426L72.2572 13.8294H71.0596L71.7082 10.8937L69.761 13.8294H68.5584L67.9683 10.8937L67.3197 13.8294H66.1169L67.1022 9.36995Z" fill="white"/>
<path fill-rule="evenodd" clip-rule="evenodd" d="M11.5722 0.0121422H59.9944V33.3424H11.5722C5.18203 33.3424 0 25.8797 0 16.6772C0 7.47483 5.18203 0.0121422 11.5722 0.0121422Z" fill="#0070B6"/>
<path fill-rule="evenodd" clip-rule="evenodd" d="M32.0816 22.4459C30.1443 23.3717 29.1755 24.6144 29.1755 26.1736C29.1755 28.4395 30.6892 29.5724 33.7163 29.5724C37.9786 29.5724 41.1148 27.2213 43.1248 22.519C42.3498 23.1038 41.581 23.4875 40.8181 23.6702C40.0553 23.853 39.3409 23.8956 38.6749 23.7981C38.0088 23.7006 37.4156 23.4936 36.8949 23.1769C36.3743 22.8601 35.9807 22.4946 35.7143 22.0805C35.5932 21.9099 35.4721 21.715 35.351 21.4957C34.7698 21.5933 34.2067 21.715 33.6619 21.8612C33.1169 22.0074 32.5902 22.2023 32.0816 22.4459ZM16.0494 15.842C17.0345 13.489 18.1473 11.3218 19.3876 9.3404C21.2989 6.28575 22.993 4.75837 24.4697 4.75837C25.1283 4.75837 25.644 5.02666 26.017 5.56335C26.3311 6.01738 26.4838 6.60564 26.4755 7.32804C26.4616 8.52514 25.919 10.5685 24.8478 13.458C24.4567 14.4901 23.6244 16.5643 22.351 19.6809C24.3936 15.6355 25.7606 13.0556 26.452 11.9411C28.3842 8.80378 30.2643 6.71925 32.0923 5.68714C33.0365 5.15059 33.6782 4.88227 34.0175 4.88227C34.3966 4.88227 34.583 5.17119 34.5762 5.74906C34.5748 5.87299 33.9989 7.34864 32.8486 10.1763C29.2951 18.8862 27.5116 23.8295 27.498 25.0059C27.4886 25.8109 27.7488 26.3057 28.5665 26.3227C28.5609 26.2261 28.558 26.1278 28.558 26.0274C28.558 24.2489 29.3814 22.8479 31.0282 21.8246C32.1423 21.1424 33.4137 20.7282 34.8425 20.582C34.3097 19.437 34.007 18.3284 33.9343 17.2563C33.8132 15.5508 34.2612 13.9916 35.2784 12.5784C36.2955 11.1653 37.7122 10.0323 39.5285 9.17962C39.8675 9.03349 40.3701 8.94817 41.036 8.92383C41.702 8.89937 42.4043 8.94817 43.143 9.07001C43.8816 9.1918 44.602 9.39279 45.3044 9.67297C46.0066 9.95321 46.5516 10.3248 46.9391 10.7877L47.9198 8.81418C48.4285 7.83961 48.925 6.95023 49.4093 6.14623C49.8935 5.34237 50.1257 4.92707 50.392 4.78089C48.4267 4.927 45.963 4.41105 44.0097 4.31418C41.3479 4.18235 39.4252 3.73305 38.0755 3.81877C36.572 3.91417 35.9036 4.01762 35.0801 4.28559C34.6195 4.43019 34.3198 4.43099 34.352 4.33067C34.3953 4.19547 35.0597 3.66939 35.2496 3.4914C35.4396 3.31336 35.6479 3.18084 35.8951 3.05799C37.0879 2.46542 39.0674 2.30737 40.2188 2.49163C41.3701 2.67588 43.1248 2.85714 46.6121 3.588C47.8715 3.85611 49.3729 4.19721 51.1165 4.61136C50.4836 4.77042 49.2713 9.98747 48.9734 10.9339C49.7726 10.2273 50.5777 9.75215 51.389 9.50852C52.2003 9.26494 52.957 9.1918 53.6594 9.28928C54.3617 9.38673 54.9913 9.5999 55.5483 9.92887C56.1054 10.2578 56.5291 10.6293 56.8198 11.0436C57.8369 12.6028 58.4182 14.1987 58.5635 15.8311C58.6845 17.5853 58.2305 19.1628 57.2012 20.5638C56.172 21.9647 54.7492 23.0794 52.9329 23.9078C52.5696 24.0784 52.0186 24.1697 51.2801 24.1818C50.5414 24.1941 49.7726 24.115 48.9734 23.9443C48.1742 23.7738 47.4234 23.5241 46.7211 23.1952C46.4749 23.0798 44.3907 21.545 45.6677 22.0805C46.6121 22.8113 47.599 23.183 48.6283 23.1952C49.6574 23.2074 50.6444 22.9698 51.5888 22.4825C52.5333 21.9952 53.3991 21.313 54.1861 20.4358C54.9732 19.5587 55.5908 18.5964 56.0388 17.5488C56.4868 16.5011 56.7289 15.4168 56.7652 14.2961C56.8016 13.1753 56.5534 12.1399 56.0206 11.1897C55.7785 10.7511 55.4212 10.3796 54.949 10.0751C54.4767 9.77042 53.9198 9.5999 53.2779 9.56338C52.6362 9.52677 51.9278 9.66697 51.1529 9.98366C50.378 10.3004 49.5787 10.8607 48.7554 11.6648L47.375 16.0503C46.1156 20.1435 44.59 23.3109 42.7979 25.5524C40.4004 28.5491 37.3853 30.0476 33.7527 30.0476C32.2996 30.0476 31.113 29.743 30.1927 29.134C29.3573 28.6109 28.8419 27.8801 28.6469 26.9418C26.8513 26.9643 25.7822 25.8315 25.8003 24.263C25.8176 22.7769 26.822 19.6293 28.8134 14.8203C30.6612 10.3621 32.3289 7.46349 33.4065 5.7504C31.4587 6.78236 29.1422 8.83471 26.8672 12.2816C24.9573 15.2125 23.4379 18.0195 22.3093 20.7026C22.1651 21.0948 21.8772 21.8171 21.446 22.8697L21.2311 23.3342C20.6974 24.6138 20.259 25.4188 19.9158 25.749C19.2547 25.9761 18.663 26.2238 18.1411 26.4921H18.0512C17.9715 26.4921 17.932 26.4508 17.933 26.3682C18.0816 25.6045 18.3296 24.8616 18.6773 24.1392C19.7002 21.9719 21.0772 18.5251 22.8083 13.7987C24.3952 9.46426 25.1934 6.88421 25.203 6.0587C25.2109 5.37757 24.8091 5.26563 24.2105 5.26563C22.8535 5.26563 21.4308 6.95655 19.73 10.7955C17.148 16.6159 15.4302 20.1867 14.5768 21.5075C12.1354 25.4781 9.4279 27.5685 6.06836 27.266C5.88651 27.2499 5.74153 27.1796 5.65633 27.0897C5.49355 26.918 5.54806 26.6744 5.97677 26.5976C6.30174 26.5394 6.6661 26.523 6.97501 26.523C8.59138 26.523 10.0557 25.8832 11.3678 24.6035C12.4576 23.5509 13.3718 22.1577 14.1104 20.424C14.1509 20.362 14.7973 18.8348 16.0494 15.842ZM35.9686 20.4724C36.6709 20.4724 37.579 20.5699 38.693 20.7649C40.1219 21.0328 40.8363 21.3739 40.8363 21.788C40.7636 21.8856 40.6789 21.9343 40.582 21.9343C40.1219 21.9343 39.5164 21.849 38.7656 21.6785C37.9423 21.4835 37.361 21.3861 37.0221 21.3861C36.9009 21.3861 36.7738 21.3861 36.6406 21.3861C36.5074 21.3861 36.3803 21.3983 36.2591 21.4226C36.3561 21.6663 36.4408 21.8369 36.5134 21.9343C36.7314 22.3485 37.0644 22.7079 37.5124 23.0123C37.9605 23.317 38.4872 23.4936 39.0927 23.5423C39.698 23.5911 40.3701 23.4875 41.1087 23.2317C41.8473 22.9758 42.6163 22.4946 43.4154 21.788C43.5123 21.5201 43.6031 21.2521 43.6879 20.9841C43.7727 20.7161 43.8634 20.448 43.9604 20.1801C44.3236 18.9131 45.0501 16.4645 46.1399 12.8343C46.2125 12.5906 46.3034 12.3165 46.4123 12.0119C46.5213 11.7074 46.6606 11.3724 46.8301 11.007L46.7938 10.9704C45.9219 10.3126 45.0138 9.95321 44.0694 9.89235C43.1248 9.83142 42.2106 9.9958 41.3266 10.3857C40.4428 10.7755 39.6194 11.342 38.8564 12.0851C38.0937 12.8282 37.4579 13.6627 36.9494 14.5885C36.4408 15.5143 36.0836 16.495 35.8778 17.5304C35.6719 18.5659 35.6901 19.5587 35.9322 20.509L35.9686 20.4724Z" fill="white"/>
</g>
<defs>
<clipPath id="clip0_1_34">
<rect width="120" height="33.3428" rx="16.6714" fill="white"/>
</clipPath>
</defs>
</svg>
