<svg width="47" height="45" viewBox="0 0 47 45" fill="none" xmlns="http://www.w3.org/2000/svg">
<path d="M20.7932 1.61459C21.9141 -0.538212 24.9943 -0.538209 26.1151 1.61459L31.2559 11.4885C31.6908 12.3238 32.4927 12.9064 33.4215 13.0619L44.4007 14.8998C46.7945 15.3006 47.7464 18.23 46.0453 19.9613L38.2432 27.9016C37.5832 28.5733 37.2769 29.516 37.416 30.4475L39.0608 41.4572C39.4194 43.8577 36.9275 45.6682 34.7553 44.5854L24.7926 39.6189C23.9498 39.1987 22.9586 39.1987 22.1158 39.6189L12.1531 44.5854C9.98093 45.6682 7.48897 43.8577 7.84758 41.4572L9.49236 30.4475C9.63151 29.516 9.3252 28.5733 8.66516 27.9016L0.863114 19.9613C-0.837967 18.23 0.113881 15.3006 2.50768 14.8998L13.4869 13.0619C14.4157 12.9064 15.2176 12.3238 15.6525 11.4885L20.7932 1.61459Z" fill="currentColor"/>
</svg>
