<svg width="24" height="24" viewBox="0 0 24 24" fill="none" xmlns="http://www.w3.org/2000/svg">
<path d="M11.9999 1C10.2206 1.00094 8.48138 1.52919 7.00207 2.51803C5.52275 3.50687 4.36967 4.91194 3.68847 6.55577C3.00727 8.19959 2.82852 10.0084 3.17478 11.7538C3.52105 13.4991 4.3768 15.1027 5.63394 16.362C7.26394 17.992 11.0999 20.35 11.3269 22.827C11.3609 23.197 11.6299 23.5 11.9999 23.5C12.3699 23.5 12.6399 23.197 12.6729 22.827C12.8999 20.35 16.7329 17.996 18.3619 16.367C19.6206 15.1082 20.4777 13.5046 20.8251 11.7587C21.1725 10.0129 20.9945 8.20326 20.3136 6.55857C19.6327 4.91388 18.4794 3.50799 16.9997 2.5186C15.5199 1.52921 13.78 1.00074 11.9999 1ZM11.9999 13.079C11.5956 13.079 11.1952 12.9994 10.8217 12.8446C10.4481 12.6899 10.1087 12.4631 9.82276 12.1772C9.53685 11.8913 9.31005 11.5518 9.15532 11.1783C9.00059 10.8047 8.92094 10.4043 8.92094 10C8.92094 9.59566 9.00059 9.19528 9.15532 8.82172C9.31005 8.44816 9.53685 8.10873 9.82276 7.82282C10.1087 7.53691 10.4481 7.31011 10.8217 7.15538C11.1952 7.00064 11.5956 6.921 11.9999 6.921C12.8165 6.921 13.5997 7.24539 14.1771 7.82282C14.7546 8.40024 15.0789 9.1834 15.0789 10C15.0789 10.8166 14.7546 11.5998 14.1771 12.1772C13.5997 12.7546 12.8165 13.079 11.9999 13.079Z" fill="#FF4433"/>
</svg>
